<svg width="60" height="62" viewBox="0 0 60 62" fill="none" xmlns="http://www.w3.org/2000/svg">
<g id="&#240;&#159;&#166;&#134; icon &#34;Facebook Square&#34;">
<path id="Vector" d="M53.5714 0H6.42857C4.72361 0 3.08848 0.695934 1.88288 1.9347C0.677294 3.17347 0 4.8536 0 6.60549L0 55.0457C0 56.7976 0.677294 58.4778 1.88288 59.7165C3.08848 60.9553 4.72361 61.6512 6.42857 61.6512H24.8103V40.6912H16.3728V30.8256H24.8103V23.3064C24.8103 14.7536 29.7656 10.0293 37.3554 10.0293C40.9902 10.0293 44.7911 10.6954 44.7911 10.6954V19.0899H40.6031C36.4768 19.0899 35.1897 21.721 35.1897 24.4197V30.8256H44.4013L42.9281 40.6912H35.1897V61.6512H53.5714C55.2764 61.6512 56.9115 60.9553 58.1171 59.7165C59.3227 58.4778 60 56.7976 60 55.0457V6.60549C60 4.8536 59.3227 3.17347 58.1171 1.9347C56.9115 0.695934 55.2764 0 53.5714 0Z" fill="white"/>
</g>
</svg>
