<svg width="60" height="62" viewBox="0 0 60 62" fill="none" xmlns="http://www.w3.org/2000/svg">
<g id="&#240;&#159;&#166;&#134; icon &#34;Instagram Square&#34;">
<path id="Vector" d="M30 23.4853C28.5872 23.4858 27.2063 23.9168 26.0319 24.7237C24.8574 25.5306 23.9422 26.6772 23.4019 28.0185C22.8617 29.3598 22.7206 30.8356 22.9965 32.2593C23.2725 33.683 23.9531 34.9907 24.9522 36.017C25.9514 37.0433 27.2243 37.7421 28.61 38.0251C29.9957 38.3081 31.4319 38.1626 32.7371 37.607C34.0423 37.0513 35.1578 36.1105 35.9427 34.9034C36.7275 33.6964 37.1464 32.2773 37.1464 30.8256C37.145 28.8788 36.3915 27.0122 35.0516 25.6358C33.7116 24.2595 31.8947 23.486 30 23.4853ZM46.7022 17.8431C46.3386 16.8961 45.7894 16.036 45.0888 15.3161C44.3882 14.5962 43.5511 14.0319 42.6295 13.6582C39.817 12.5174 33.1205 12.7734 30 12.7734C26.8795 12.7734 20.1897 12.5078 17.3692 13.6582C16.4476 14.0319 15.6105 14.5962 14.9099 15.3161C14.2093 16.036 13.6601 16.8961 13.2964 17.8431C12.1875 20.733 12.4353 27.6206 12.4353 30.8242C12.4353 34.0279 12.1875 40.9072 13.3018 43.8068C13.6655 44.7538 14.2146 45.6139 14.9152 46.3338C15.6158 47.0537 16.4529 47.6179 17.3746 47.9916C20.1871 49.1325 26.8835 48.8765 30.0054 48.8765C33.1272 48.8765 39.8143 49.1421 42.6348 47.9916C43.5565 47.6179 44.3935 47.0537 45.0941 46.3338C45.7947 45.6139 46.3439 44.7538 46.7076 43.8068C47.8259 40.9169 47.5687 34.0293 47.5687 30.8256C47.5687 27.622 47.8259 20.744 46.7076 17.8445L46.7022 17.8431ZM30 42.11C27.8279 42.11 25.7047 41.4482 23.8986 40.2082C22.0926 38.9683 20.685 37.2059 19.8538 35.144C19.0226 33.082 18.8051 30.8131 19.2289 28.6241C19.6526 26.4352 20.6986 24.4245 22.2345 22.8464C23.7703 21.2682 25.7272 20.1935 27.8575 19.7581C29.9878 19.3227 32.196 19.5461 34.2027 20.4002C36.2094 21.2543 37.9246 22.7006 39.1313 24.5564C40.3381 26.4121 40.9821 28.5938 40.9821 30.8256C40.9839 32.308 40.701 33.7762 40.1498 35.1461C39.5985 36.516 38.7896 37.7607 37.7695 38.8089C36.7493 39.8571 35.538 40.6883 34.2048 41.2547C32.8716 41.8212 31.4427 42.1118 30 42.11ZM41.4348 21.7018C40.9278 21.7021 40.432 21.5478 40.0103 21.2586C39.5886 20.9693 39.2598 20.558 39.0656 20.0768C38.8714 19.5955 38.8204 19.0659 38.9192 18.5548C39.0179 18.0438 39.262 17.5744 39.6204 17.2059C39.9789 16.8374 40.4356 16.5864 40.9329 16.4846C41.4302 16.3829 41.9457 16.435 42.4141 16.6343C42.8826 16.8336 43.283 17.1712 43.5648 17.6044C43.8465 18.0375 43.9969 18.5468 43.9969 19.0678C43.9983 19.4138 43.9332 19.7567 43.8054 20.0768C43.6775 20.3968 43.4894 20.6878 43.2519 20.9331C43.0144 21.1783 42.7321 21.3729 42.4212 21.5058C42.1103 21.6386 41.7769 21.7071 41.4402 21.7073L41.4348 21.7018ZM53.5714 0H6.42857C4.72361 0 3.08848 0.695934 1.88288 1.9347C0.677294 3.17347 0 4.8536 0 6.60549L0 55.0457C0 56.7976 0.677294 58.4778 1.88288 59.7165C3.08848 60.9553 4.72361 61.6512 6.42857 61.6512H53.5714C55.2764 61.6512 56.9115 60.9553 58.1171 59.7165C59.3227 58.4778 60 56.7976 60 55.0457V6.60549C60 4.8536 59.3227 3.17347 58.1171 1.9347C56.9115 0.695934 55.2764 0 53.5714 0ZM51.2786 39.9082C51.1058 43.4352 50.3223 46.5604 47.8165 49.1283C45.3107 51.6962 42.2719 52.5178 38.8433 52.6857C35.3062 52.8907 24.7018 52.8907 21.1647 52.6857C17.7321 52.5081 14.7013 51.7017 12.1915 49.1283C9.6817 46.5549 8.89286 43.4283 8.72946 39.9082C8.52991 36.2724 8.52991 25.3747 8.72946 21.7431C8.90223 18.216 9.67634 15.0908 12.1915 12.5229C14.7067 9.95502 17.7455 9.1431 21.1647 8.97521C24.7018 8.77016 35.3062 8.77016 38.8433 8.97521C42.2759 9.15273 45.3161 9.95915 47.8165 12.5325C50.317 15.1059 51.1152 18.2325 51.2786 21.7596C51.4781 25.3816 51.4781 36.2696 51.2786 39.9082Z" fill="white"/>
</g>
</svg>
