<svg width="60" height="62" viewBox="0 0 60 62" fill="none" xmlns="http://www.w3.org/2000/svg">
<g id="&#240;&#159;&#166;&#134; icon &#34;What&#39;s App Square&#34;">
<path id="Vector" d="M30 12.4954C20.2634 12.4954 12.3482 20.6284 12.3348 30.633C12.3348 34.0596 13.2723 37.4036 15.0402 40.2797L15.4554 40.9678L13.6741 47.6558L20.3571 45.8531L21 46.2522C23.7054 47.9036 26.8125 48.7843 29.9866 48.7843H30C39.7232 48.7843 47.8527 40.6513 47.8527 30.6467C47.8527 25.8027 45.817 21.2477 42.4821 17.8211C39.1339 14.3807 34.7143 12.4954 30 12.4954ZM40.3795 38.4219C39.9375 39.7017 37.8214 40.8577 36.8036 41.0091C35.1161 41.2705 33.8036 41.1329 30.442 39.6467C25.125 37.2797 21.6429 31.7752 21.375 31.4174C21.1071 31.0596 19.2054 28.4586 19.2054 25.7752C19.2054 23.0917 20.5714 21.7706 21.067 21.2201C21.5491 20.6697 22.125 20.5321 22.4866 20.5321C22.8348 20.5321 23.1964 20.5321 23.5045 20.5458C23.8259 20.5596 24.2679 20.422 24.6964 21.4816C25.1384 22.5688 26.1964 25.2522 26.3304 25.5275C26.4643 25.8027 26.558 26.1192 26.3705 26.477C25.3527 28.5687 24.2679 28.4862 24.817 29.4495C26.8661 33.0687 28.9152 34.321 32.0357 35.9311C32.5714 36.2063 32.8795 36.1651 33.1875 35.7935C33.4955 35.4357 34.5134 34.1972 34.8616 33.6605C35.2098 33.11 35.5714 33.2063 36.0536 33.3852C36.5357 33.5641 39.1473 34.8852 39.683 35.1605C40.2187 35.4357 40.567 35.5733 40.7009 35.7935C40.8214 36.055 40.8214 37.1559 40.3795 38.4219ZM53.5714 0H6.42857C2.87946 0 0 2.95871 0 6.60549V55.0457C0 58.6925 2.87946 61.6512 6.42857 61.6512H53.5714C57.1205 61.6512 60 58.6925 60 55.0457V6.60549C60 2.95871 57.1205 0 53.5714 0ZM29.9866 52.4586C26.4241 52.4586 22.9286 51.5366 19.8348 49.8026L8.57143 52.8439L11.5848 41.532C9.72321 38.2293 8.74554 34.4724 8.74554 30.6192C8.75893 18.5917 18.2812 8.80732 29.9866 8.80732C35.6652 8.80732 40.9955 11.078 45.0134 15.2064C49.0179 19.3348 51.4286 24.8119 51.4286 30.6467C51.4286 42.6742 41.692 52.4586 29.9866 52.4586Z" fill="white"/>
</g>
</svg>
